<svg width="256" height="256" viewBox="0 0 256 256" xmlns="http://www.w3.org/2000/svg">
  <!-- Background -->
  <rect width="256" height="256" rx="32" fill="#2563eb"/>
  
  <!-- Calculator body -->
  <rect x="32" y="32" width="192" height="192" rx="16" fill="#1e293b" stroke="#475569" stroke-width="2"/>
  
  <!-- Display -->
  <rect x="48" y="48" width="160" height="40" rx="8" fill="#0f172a" stroke="#334155" stroke-width="1"/>
  <text x="200" y="75" font-family="monospace" font-size="24" fill="#e2e8f0" text-anchor="end">123</text>
  
  <!-- Buttons -->
  <!-- Row 1 -->
  <rect x="48" y="104" width="32" height="32" rx="4" fill="#374151" stroke="#4b5563" stroke-width="1"/>
  <text x="64" y="125" font-family="sans-serif" font-size="16" fill="#f9fafb" text-anchor="middle">C</text>
  
  <rect x="88" y="104" width="32" height="32" rx="4" fill="#374151" stroke="#4b5563" stroke-width="1"/>
  <text x="104" y="125" font-family="sans-serif" font-size="16" fill="#f9fafb" text-anchor="middle">±</text>
  
  <rect x="128" y="104" width="32" height="32" rx="4" fill="#374151" stroke="#4b5563" stroke-width="1"/>
  <text x="144" y="125" font-family="sans-serif" font-size="16" fill="#f9fafb" text-anchor="middle">%</text>
  
  <rect x="168" y="104" width="32" height="32" rx="4" fill="#f59e0b" stroke="#d97706" stroke-width="1"/>
  <text x="184" y="125" font-family="sans-serif" font-size="16" fill="#ffffff" text-anchor="middle">÷</text>
  
  <!-- Row 2 -->
  <rect x="48" y="144" width="32" height="32" rx="4" fill="#4b5563" stroke="#6b7280" stroke-width="1"/>
  <text x="64" y="165" font-family="sans-serif" font-size="16" fill="#f9fafb" text-anchor="middle">7</text>
  
  <rect x="88" y="144" width="32" height="32" rx="4" fill="#4b5563" stroke="#6b7280" stroke-width="1"/>
  <text x="104" y="165" font-family="sans-serif" font-size="16" fill="#f9fafb" text-anchor="middle">8</text>
  
  <rect x="128" y="144" width="32" height="32" rx="4" fill="#4b5563" stroke="#6b7280" stroke-width="1"/>
  <text x="144" y="165" font-family="sans-serif" font-size="16" fill="#f9fafb" text-anchor="middle">9</text>
  
  <rect x="168" y="144" width="32" height="32" rx="4" fill="#f59e0b" stroke="#d97706" stroke-width="1"/>
  <text x="184" y="165" font-family="sans-serif" font-size="16" fill="#ffffff" text-anchor="middle">×</text>
  
  <!-- Row 3 -->
  <rect x="48" y="184" width="32" height="32" rx="4" fill="#4b5563" stroke="#6b7280" stroke-width="1"/>
  <text x="64" y="205" font-family="sans-serif" font-size="16" fill="#f9fafb" text-anchor="middle">4</text>
  
  <rect x="88" y="184" width="32" height="32" rx="4" fill="#4b5563" stroke="#6b7280" stroke-width="1"/>
  <text x="104" y="205" font-family="sans-serif" font-size="16" fill="#f9fafb" text-anchor="middle">5</text>
  
  <rect x="128" y="184" width="32" height="32" rx="4" fill="#4b5563" stroke="#6b7280" stroke-width="1"/>
  <text x="144" y="205" font-family="sans-serif" font-size="16" fill="#f9fafb" text-anchor="middle">6</text>
  
  <rect x="168" y="184" width="32" height="32" rx="4" fill="#f59e0b" stroke="#d97706" stroke-width="1"/>
  <text x="184" y="205" font-family="sans-serif" font-size="16" fill="#ffffff" text-anchor="middle">-</text>
</svg>